<?xml version="1.0" encoding="UTF-8" standalone="no"?>
<!-- Created with Inkscape (http://www.inkscape.org/) -->

<svg
   version="1.1"
   id="svg1"
   width="568.28174"
   height="568.31616"
   viewBox="0 0 568.28174 568.31617"
   sodipodi:docname="53075544_eps_normal_none.eps"
   xmlns:inkscape="http://www.inkscape.org/namespaces/inkscape"
   xmlns:sodipodi="http://sodipodi.sourceforge.net/DTD/sodipodi-0.dtd"
   xmlns="http://www.w3.org/2000/svg"
   xmlns:svg="http://www.w3.org/2000/svg">
  <defs
     id="defs1" />
  <sodipodi:namedview
     id="namedview1"
     pagecolor="#ffffff"
     bordercolor="#000000"
     borderopacity="0.25"
     inkscape:showpageshadow="2"
     inkscape:pageopacity="0.0"
     inkscape:pagecheckerboard="0"
     inkscape:deskcolor="#d1d1d1"
     showgrid="false" />
  <g
     id="g1"
     inkscape:groupmode="layer"
     inkscape:label="1"
     transform="translate(-116.81248,-117.98962)">
    <path
       id="path2"
       d="m 649.66435,339.45635 -1.70996,-1.02901 0.99874,-1.72813 c 2.98412,-5.1632 5.33167,-10.68151 6.97909,-16.40159 5.40633,-18.77233 3.17984,-38.52625 -6.2719,-55.62191 -9.45073,-17.09667 -24.99278,-29.49016 -43.76512,-34.89648 -7.59953,-2.18816 -15.54205,-3.12637 -23.39883,-2.7864 l -2.26584,0.0979 0.15132,-2.26281 c 0.52964,-7.91125 -0.22093,-15.80334 -2.22951,-23.45835 -8.43686,-32.13834 -37.50431,-54.58484 -70.68881,-54.58484 -6.2487,0 -12.51354,0.81211 -18.61697,2.41414 -7.18188,1.8855 -13.98644,4.81818 -20.22304,8.7163 l -1.85624,1.16016 -1.01792,-1.93898 c -3.41994,-6.51204 -7.81642,-12.47525 -13.06537,-17.7252 -13.81292,-13.81292 -32.17869,-21.42153 -51.7137,-21.42153 -19.53401,0 -37.89977,7.60861 -51.7137,21.42153 -2.94074,2.94074 -5.68678,6.21641 -8.16044,9.73522 l -1.02497,1.45978 -1.57983,-0.82926 c -3.80733,-1.99749 -7.74682,-3.65399 -11.7085,-4.92512 -7.27064,-2.33141 -14.79047,-3.51376 -22.35066,-3.51376 -31.8952,0 -59.87514,20.42278 -69.62348,50.82089 -3.11628,9.71605 -4.15941,19.77309 -3.10216,29.89167 l 0.2744,2.61993 -2.60379,-0.40151 c -9.97128,-1.53847 -20.22504,-0.98159 -30.00839,1.63532 -18.8718,5.04718 -34.64781,17.14206 -44.42288,34.05512 -9.77496,16.91305 -12.37825,36.62058 -7.33057,55.49278 1.83567,6.86408 4.65637,13.41443 8.38319,19.46843 l 1.12747,1.83102 -1.89236,1.02094 c -6.25516,3.37757 -11.97473,7.63686 -17.00043,12.66184 -13.81271,13.81393 -21.42071,32.1797 -21.42071,51.71371 0,19.535 7.608,37.90078 21.42071,51.71369 4.20754,4.20784 8.93209,7.90117 14.04404,10.97911 l 1.70988,1.02801 -0.99855,1.72813 c -2.98392,5.1642 -5.33258,10.68251 -6.9799,16.40258 -11.1605,38.75123 11.286,79.3577 50.03692,90.51739 7.5963,2.18815 15.53782,3.12233 23.39863,2.78639 l 2.26583,-0.0978 -0.15132,2.2628 c -0.52964,7.91025 0.22094,15.80234 2.22952,23.45745 8.43585,32.13915 37.50431,54.58484 70.68881,54.58484 6.2487,0 12.51253,-0.8114 18.61697,-2.41413 7.18187,-1.88481 13.98644,-4.81717 20.22303,-8.7153 l 1.85625,-1.16016 1.01792,1.93888 c 3.41993,6.51281 7.81642,12.47631 13.06537,17.72617 13.81393,13.81272 32.17969,21.41961 51.7137,21.41961 19.53501,0 37.90078,-7.60689 51.7137,-21.41961 2.94377,-2.94367 5.6888,-6.21965 8.16044,-9.73522 l 1.02496,-1.45998 1.57983,0.82946 c 3.80532,1.99647 7.74481,3.65308 11.7085,4.924 7.27065,2.33131 14.79048,3.51397 22.35167,3.51397 31.89521,0 59.87515,-20.4241 69.62349,-50.82109 3.11526,-9.71505 4.1584,-19.77198 3.10215,-29.89157 l -0.27339,-2.61994 2.60278,0.40152 c 9.97331,1.53948 20.22404,0.98159 30.00668,-1.63532 18.87221,-5.04718 34.64831,-17.14105 44.42389,-34.05511 9.77557,-16.91307 12.37835,-36.62058 7.33117,-55.49178 -1.83708,-6.8661 -4.65777,-13.41645 -8.3844,-19.46944 l -1.12686,-1.83103 1.89257,-1.02194 c 6.25476,-3.37454 11.97483,-7.63484 17.00083,-12.66084 28.51461,-28.51461 28.51461,-74.91177 0,-103.4274 -4.21087,-4.20985 -8.93522,-7.90318 -14.04395,-10.97809"
       style="fill:#373638;fill-opacity:1;fill-rule:nonzero;stroke:none;stroke-width:0.100883"
       inkscape:export-filename="..\Desktop\path2.svg"
       inkscape:export-xdpi="96"
       inkscape:export-ydpi="96" />
    <path
       id="path4"
       d="m 537.93427,390.6051 c -5.05727,-31.62989 -92.93253,15.47647 -137.27874,-54.78459 -44.3452,-70.26106 27.71765,-127.33267 0.72535,-152.80767 -26.99229,-25.47501 -198.74784,59.18914 -98.08362,214.53907 96.35953,148.70779 242.70968,43.54015 234.63701,-6.94681"
       style="fill:#cf710f;fill-opacity:1;fill-rule:nonzero;stroke:none;stroke-width:0.100883" />
    <path
       id="path5"
       d="m 268.48754,294.97495 c -2.00758,11.25856 -1.27718,22.19732 -0.12106,30.0773 0.91803,6.25778 7.34833,10.09638 13.30144,7.95968 l 101.85261,-36.56106 c 4.75967,-1.70896 7.54203,-6.70368 6.39297,-11.62879 -1.13594,-4.86661 -1.52132,-11.86285 1.15611,-20.82834 2.06509,-6.91554 3.93445,-11.99702 5.47393,-15.65907 2.056,-4.89284 -0.0706,-10.53725 -4.83735,-12.87169 l -63.53014,-31.1063 c -3.53293,-1.73015 -7.75589,-1.24086 -10.78441,1.2681 -11.71556,9.70799 -39.69247,37.67178 -48.9041,89.35017"
       style="fill:#f68712;fill-opacity:1;fill-rule:nonzero;stroke:none;stroke-width:0.100883" />
    <path
       id="path6"
       d="m 395.4429,292.8675 c -3.92233,-1.59698 -2.03381,-12.82628 -28.37742,-10.04796 -26.34461,2.77832 -71.0076,0.23405 -89.30275,13.46487 -4.67795,3.3816 -12.9312,24.4339 -9.35288,21.10879 3.57732,-3.32511 127.03305,-24.5257 127.03305,-24.5257"
       style="fill:#f9a72b;fill-opacity:1;fill-rule:nonzero;stroke:none;stroke-width:0.100883" />
    <path
       id="path7"
       d="m 384.53239,469.37364 c -10.79449,-2.78539 -20.18672,-7.86688 -26.69469,-12.08378 -5.16824,-3.34933 -5.94,-10.6008 -1.61211,-15.00738 l 74.04116,-75.39299 c 3.45928,-3.52284 9.02198,-3.9627 12.91506,-0.9483 3.84768,2.97807 9.88856,6.15488 18.92467,7.41794 6.97102,0.97452 12.23712,1.37806 16.11103,1.49912 5.1753,0.16141 9.30647,4.33394 9.42551,9.50218 l 1.57782,68.87695 c 0.0878,3.83054 -2.07214,7.37254 -5.53446,9.03811 -13.39021,6.44039 -49.60423,19.88609 -99.15399,7.09815"
       style="fill:#f68712;fill-opacity:1;fill-rule:nonzero;stroke:none;stroke-width:0.100883" />
    <path
       id="path8"
       d="m 358.3512,459.23286 c 4.03936,-1.27113 9.74733,8.58214 28.26443,-10.36069 18.51811,-18.94182 59.85497,-41.38832 60.38662,-71.43737 0.15032,-8.51453 -5.81995,-22.95798 -6.4545,-18.11457 -0.63455,4.8424 -82.19655,99.91263 -82.19655,99.91263"
       style="fill:#f9a72b;fill-opacity:1;fill-rule:nonzero;stroke:none;stroke-width:0.100883" />
    <path
       id="path9"
       d="m 441.11673,377.73543 c 16.20486,-21.63035 -11.22224,-18.70171 -27.11234,-44.52073 -22.96201,-37.3086 -12.2341,-55.10035 -28.32496,-49.10789 l -113.84964,29.04526 c -19.92946,-0.63859 0.52561,54.28219 19.19302,85.88888 19.70348,33.36306 63.31829,74.02601 74.51833,58.88245 l 75.57559,-80.18797"
       style="fill:#f68712;fill-opacity:1;fill-rule:nonzero;stroke:none;stroke-width:0.100883" />
    <path
       id="path10"
       d="m 354.85863,298.28593 c 0,0 31.01248,-11.98289 35.42712,-7.883 4.41465,4.09888 5.2308,26.1721 12.39047,38.15501 7.16069,11.98289 32.82535,31.8488 33.2763,36.62662 1.54654,16.38948 -58.28018,61.1261 -58.28018,61.1261 0,0 30.81374,-53.29151 16.35315,-87.66239 -14.46059,-34.37089 -39.16686,-40.36234 -39.16686,-40.36234"
       style="fill:#cf710f;fill-opacity:1;fill-rule:nonzero;stroke:none;stroke-width:0.100883" />
    <path
       id="path11"
       d="m 449.56872,377.4348 c 0,0 5.99145,4.09888 12.61342,4.41465 6.62197,0.31476 13.24394,-2.83885 17.97435,0 4.7294,2.83784 1.89155,73.15641 1.89155,73.15641 0,0 -8.51352,-47.93058 -18.91962,-57.39039 -10.40609,-9.45982 -13.5597,-20.18067 -13.5597,-20.18067"
       style="fill:#cf710f;fill-opacity:1;fill-rule:nonzero;stroke:none;stroke-width:0.100883" />
    <path
       id="path12"
       d="m 346.1393,219.13707 c 0,0 -14.50498,-12.61342 -23.01952,-10.72086 -8.51352,1.89156 -24.28055,23.33427 -31.84779,41.93913 -7.56826,18.60488 -16.08279,39.19311 -16.08279,39.19311 0,0 38.92374,-60.95863 47.93058,-67.57354 13.28733,-9.75742 23.01952,-2.83784 23.01952,-2.83784"
       style="fill:#cf710f;fill-opacity:1;fill-rule:nonzero;stroke:none;stroke-width:0.100883" />
    <path
       id="path13"
       d="m 359.21879,440.49281 c 0,2.40808 -1.95209,4.36017 -4.36016,4.36017 -2.40708,0 -4.35917,-1.95209 -4.35917,-4.36017 0,-2.40808 1.95209,-4.35916 4.35917,-4.35916 2.40807,0 4.36016,1.95108 4.36016,4.35916"
       style="fill:#cf710f;fill-opacity:1;fill-rule:nonzero;stroke:none;stroke-width:0.100883" />
    <path
       id="path14"
       d="m 350.69518,429.38357 c 0,3.72763 -3.02145,6.75008 -6.74908,6.75008 -3.72864,0 -6.75009,-3.02245 -6.75009,-6.75008 0,-3.72764 3.02145,-6.75009 6.75009,-6.75009 3.72763,0 6.74908,3.02245 6.74908,6.75009"
       style="fill:#cf710f;fill-opacity:1;fill-rule:nonzero;stroke:none;stroke-width:0.100883" />
    <path
       id="path15"
       d="m 362.55096,426.39642 c 0,1.84011 -1.49206,3.33217 -3.33217,3.33217 -1.84011,0 -3.33217,-1.49206 -3.33217,-3.33217 0,-1.84011 1.49206,-3.33217 3.33217,-3.33217 1.84011,0 3.33217,1.49206 3.33217,3.33217"
       style="fill:#cf710f;fill-opacity:1;fill-rule:nonzero;stroke:none;stroke-width:0.100883" />
    <path
       id="path16"
       d="m 354.80919,307.5571 c 1.69585,-0.31375 3.32411,0.80605 3.63886,2.50089 0.31374,1.69584 -0.80504,3.3241 -2.50089,3.63885 -1.69484,0.31375 -3.3241,-0.80504 -3.63886,-2.50089 -0.31375,-1.69484 0.80606,-3.3241 2.50089,-3.63885"
       style="fill:#cf710f;fill-opacity:1;fill-rule:nonzero;stroke:none;stroke-width:0.100883" />
    <path
       id="path17"
       d="m 348.09946,315.00833 c 2.62498,-0.48627 5.14705,1.24691 5.63331,3.87188 0.48626,2.62498 -1.24691,5.14707 -3.87088,5.63332 -2.62499,0.48626 -5.14706,-1.24692 -5.63433,-3.8719 -0.48625,-2.62396 1.24692,-5.14604 3.8719,-5.6333"
       style="fill:#cf710f;fill-opacity:1;fill-rule:nonzero;stroke:none;stroke-width:0.100883" />
    <path
       id="path18"
       d="m 344.4495,307.05066 c 1.29534,-0.2401 2.54024,0.6164 2.78035,1.91174 0.24009,1.29534 -0.61539,2.54023 -1.91073,2.78034 -1.29534,0.2411 -2.54125,-0.61539 -2.78134,-1.91073 -0.24012,-1.29534 0.61537,-2.54124 1.91172,-2.78135"
       style="fill:#cf710f;fill-opacity:1;fill-rule:nonzero;stroke:none;stroke-width:0.100883" />
    <path
       id="path19"
       d="m 421.5454,441.0396 c 1.69484,-0.31374 3.3241,0.80505 3.63886,2.50089 0.31375,1.69484 -0.80505,3.32411 -2.5009,3.63886 -1.69584,0.31375 -3.32409,-0.80606 -3.63884,-2.5009 -0.31375,-1.69584 0.80504,-3.32409 2.50088,-3.63885"
       style="fill:#cf710f;fill-opacity:1;fill-rule:nonzero;stroke:none;stroke-width:0.100883" />
    <path
       id="path20"
       d="m 414.83566,448.49083 c 2.62499,-0.48626 5.14707,1.24691 5.63332,3.87189 0.48626,2.62397 -1.24692,5.14706 -3.8719,5.63331 -2.62396,0.48626 -5.14705,-1.24691 -5.6333,-3.87189 -0.48627,-2.62498 1.24691,-5.14705 3.87188,-5.63331"
       style="fill:#cf710f;fill-opacity:1;fill-rule:nonzero;stroke:none;stroke-width:0.100883" />
    <path
       id="path21"
       d="m 411.18572,440.53317 c 1.29533,-0.24011 2.54023,0.61539 2.78033,1.91173 0.24011,1.29534 -0.61539,2.54024 -1.91072,2.78034 -1.29635,0.2401 -2.54124,-0.61538 -2.78135,-1.91072 -0.2401,-1.29635 0.61539,-2.54125 1.91174,-2.78135"
       style="fill:#cf710f;fill-opacity:1;fill-rule:nonzero;stroke:none;stroke-width:0.100883" />
    <path
       id="path22"
       d="m 371.18152,274.10122 c -1.713,-0.19672 -2.94276,-1.74427 -2.74705,-3.45727 0.19672,-1.71299 1.74427,-2.94275 3.45726,-2.74704 1.713,0.19672 2.94276,1.74427 2.74705,3.45727 -0.19672,1.71299 -1.74426,2.94276 -3.45726,2.74704"
       style="fill:#cf710f;fill-opacity:1;fill-rule:nonzero;stroke:none;stroke-width:0.100883" />
    <path
       id="path23"
       d="m 379.77979,268.94105 c -2.65222,-0.30265 -4.55588,-2.69964 -4.25324,-5.35085 0.30366,-2.65221 2.69964,-4.55688 5.35185,-4.25322 2.65222,0.30365 4.55589,2.69963 4.25324,5.35185 -0.30366,2.65222 -2.69964,4.55588 -5.35185,4.25222"
       style="fill:#cf710f;fill-opacity:1;fill-rule:nonzero;stroke:none;stroke-width:0.100883" />
    <path
       id="path24"
       d="m 380.93894,277.61902 c -1.30947,-0.14931 -2.24869,-1.33267 -2.09939,-2.64213 0.15032,-1.30846 1.33268,-2.24869 2.64213,-2.09837 1.30947,0.14931 2.24869,1.33266 2.09938,2.64112 -0.15032,1.30947 -1.33266,2.24969 -2.64212,2.09938"
       style="fill:#cf710f;fill-opacity:1;fill-rule:nonzero;stroke:none;stroke-width:0.100883" />
    <text
       xml:space="preserve"
       style="font-style:normal;font-variant:normal;font-weight:normal;font-stretch:normal;font-size:108.404px;font-family:Gabriola;-inkscape-font-specification:'Gabriola, Normal';font-variant-ligatures:normal;font-variant-caps:normal;font-variant-numeric:normal;font-variant-east-asian:normal;fill:#ffffff;stroke-width:9.03374"
       x="221.61806"
       y="566.80225"
       id="text30"><tspan
         sodipodi:role="line"
         id="tspan30"
         x="221.61806"
         y="566.80225"
         style="font-style:normal;font-variant:normal;font-weight:normal;font-stretch:normal;font-size:108.404px;font-family:Gabriola;-inkscape-font-specification:'Gabriola, Normal';font-variant-ligatures:normal;font-variant-caps:normal;font-variant-numeric:normal;font-variant-east-asian:normal;fill:#ffffff;stroke-width:9.03374">Panapetito</tspan></text>
  </g>
</svg>
